# xmcd
#
# Track frame offsets: 
#        150
#        25867
#        64855
#        100760
#        136212
#        159822
#        184455
#        254792
#        306997
#
# Disc length: 4450 seconds
#
# Revision: 1
# Processed by: cddbd v1.5.2PL0 Copyright (c) Steve Scherf et al.
# Submitted via: ExactAudioCopyFreeDBPlugin 1.0
#
DISCID=7a116009
DTITLE=Allman Brothers - An Evening With The Allman Brothers Band - Fi
DTITLE=rst Set
DYEAR=1900
DGENRE=
TTITLE0=End Of The Line
TTITLE1=Blue Sky
TTITLE2=Get On With Your Life
TTITLE3=Southbound
TTITLE4=Midnight Blues
TTITLE5=Melissa
TTITLE6=Nobody Knows
TTITLE7=Dreams
TTITLE8=Revival
EXTD=
EXTT0=
EXTT1=
EXTT2=
EXTT3=
EXTT4=
EXTT5=
EXTT6=
EXTT7=
EXTT8=
PLAYORDER=
